<?xml version="1.0" encoding="utf-8"?>
<!-- Generator: Adobe Illustrator 27.8.0, SVG Export Plug-In . SVG Version: 6.00 Build 0)  -->
<svg version="1.1" id="Layer_1" xmlns="http://www.w3.org/2000/svg" xmlns:xlink="http://www.w3.org/1999/xlink" x="0px" y="0px"
	 viewBox="0 0 400 400" style="enable-background:new 0 0 400 400;" xml:space="preserve">
<style type="text/css">
	.st0{fill-rule:evenodd;clip-rule:evenodd;}
	.st1{fill-rule:evenodd;clip-rule:evenodd;fill:#ABD69A;}
	.st2{fill-rule:evenodd;clip-rule:evenodd;fill:#00AEEF;}
	.st3{fill-rule:evenodd;clip-rule:evenodd;fill:#94D9F8;}
	.st4{fill-rule:evenodd;clip-rule:evenodd;fill:#9F248F;}
	.st5{fill-rule:evenodd;clip-rule:evenodd;fill:#7E53A2;}
	.st6{fill-rule:evenodd;clip-rule:evenodd;fill:#F68B1F;}
	.st7{fill-rule:evenodd;clip-rule:evenodd;fill:#A2D6B7;}
	.st8{fill-rule:evenodd;clip-rule:evenodd;fill:#5BBA47;}
	.st9{fill-rule:evenodd;clip-rule:evenodd;fill:#17479E;}
	.st10{fill-rule:evenodd;clip-rule:evenodd;fill:#00A9A0;}
</style>
<g>
	<g>
		<g>
			<path id="path_6d7535c0d8841c384fa14898cab8c2e7" class="st0" d="M391.7,100.6l2-2c-11.1-11.1-23.8-19.4-37.5-24.9
				c7.1-18.6,10.7-38.6,10.7-59.1h-2.8c0,20.4-3.8,40-10.6,58.1c-20.5-7.8-42.7-9.4-64-5c-0.3,0-0.5,0-0.8,0.2
				c-6.7,1.4-13.2,3.5-19.6,6.1c-0.2,0-0.4,0.1-0.6,0.2c-13.3,5.6-25.7,13.7-36.5,24.5c-2.5,2.5-4.8,5-6.9,7.6c0,0,0,0,0,0.1
				c-6,7.2-11,14.9-14.9,23.1c-0.1,0.1-0.2,0.3-0.2,0.4c-4.9,10.2-8.2,21-9.9,31.9c-3.7-23.8-14.8-45.7-32.1-63.1
				C146.4,77,117.7,65.1,87.1,65.1l0,0c-14.1,0-27.8,2.6-40.7,7.4c-6.8-18.1-10.6-37.6-10.6-58h-2.8c0,20.5,3.7,40.5,10.7,59.1
				C30,79.3,17.2,87.7,6.3,98.6l2,2c10.6-10.6,23-18.8,36.5-24.4c7.3,18.5,18,35.6,31.7,50.7c0.1,0.1,0.2,0.3,0.3,0.4
				c1.6,1.8,3.3,3.6,5.1,5.3c5.8,5.8,12,11.1,18.4,16c0,0,0,0,0,0c23.9,17.8,51.9,28.8,81.6,32c-21.1,4.4-39.5,16.2-52.2,32.6
				c-0.2,0.1-0.4,0.3-0.5,0.5c0,0,0,0.1,0,0.1c-8.3,10.9-14.2,23.8-16.7,37.8c0,0.1-0.1,0.2-0.1,0.3c0,0.1,0,0.2,0,0.3
				c-0.9,5-1.3,10.1-1.3,15.3h2.8c0-4.7,0.4-9.4,1.1-13.9c1.4,0.2,3.9,0.4,7.1,0.4c10.6,0,29.4-2.3,45.5-15.9
				c0.1,5,0.8,10.4,2.1,16.2c-1.2,1.3-2.4,2.6-3.7,3.9l2,2c17.3-17.3,28.4-39.3,32.1-63.1c0.7,4.7,1.8,9.4,3.1,14
				c0,0.2,0.1,0.5,0.2,0.7c5.2,17.7,14.8,34.4,28.8,48.4l2-2c-1.3-1.3-2.5-2.6-3.7-3.9c1.3-5.7,1.9-11.1,2.1-16.1
				c16.1,13.6,34.9,15.9,45.5,15.9c3.2,0,5.7-0.2,7.1-0.4c0.7,4.5,1.1,9.1,1.1,13.9h2.8c0-5.3-0.5-10.5-1.4-15.6c0,0,0,0,0-0.1
				c0,0,0,0,0,0c-2.5-14.2-8.4-27.2-16.8-38.1c0,0,0,0,0,0c-0.1-0.2-0.2-0.3-0.4-0.5c-12.8-16.5-31.2-28.3-52.3-32.7
				c37.8-4,72.8-20.7,100-47.9c1.8-1.8,3.5-3.6,5.2-5.4c0,0,0,0,0,0c13.8-15.1,24.6-32.3,31.9-50.8
				C368.5,81.7,380.9,89.8,391.7,100.6z"/>
		</g>
	</g>
	<g>
		<g>
			<g>
				<path id="path_2f2e658b0ed7a9a8c5f057c0c847fa8a" class="st1" d="M201.5,182.7c3.4,2.3,10.3,7.7,16.4,16.1
					c4.5,6.3,7.7,13,9.6,20.2c-11.9-2.3-19.8-7.4-21.7-8.7C203.2,201.3,201.8,192,201.5,182.7z"/>
			</g>
		</g>
		<g>
			<g>
				<path id="path_14855c79ec2295b0a84a3471f6cb81e8" class="st1" d="M194.3,210.2c-1.6,1.1-9.6,6.5-21.8,8.8
					c1.9-7.2,5.1-13.9,9.6-20.2c6.1-8.6,13.1-13.9,16.5-16.2C198.3,192,196.8,201.3,194.3,210.2z"/>
			</g>
		</g>
	</g>
	<g>
		<g>
			<g>
				<path id="path_8c277c7c69dac412f9557fdf02abed6d" class="st2" d="M204.8,178.6c4.4-3.2,11.7-9.1,17.9-17.4
					c3.2-4.4,6.3-9.7,8.4-15.9c7.6,1.8,15.1,2.6,22.4,2.6c1.2,0,2.3,0,3.4-0.1c-5.6,11.6-8.4,21.1-9.2,23.8
					C234,175.7,219.6,178.2,204.8,178.6z"/>
			</g>
		</g>
		<g>
			<g>
				<path id="path_4e1f12841838df89649c50ed72f1414a" class="st2" d="M152.3,171.6c-0.8-2.8-3.6-12.3-9.2-23.8
					c1.1,0,2.3,0.1,3.4,0.1c7.2,0,14.8-0.8,22.4-2.6c2.1,6.2,5.2,11.5,8.4,15.9c6.2,8.4,13.5,14.3,17.9,17.4
					C180.3,178.1,166,175.7,152.3,171.6z"/>
			</g>
		</g>
	</g>
	<g>
		<g>
			<g>
				<path id="path_bb334739504c5f1d1e70db9a38eeea2c" class="st3" d="M297.5,146.5c-14,10.4-29.7,18.6-46.7,24.1
					c1.2-4.1,4.1-12.8,9.2-23c13.2-0.8,25.1-3.8,34.2-6.9c1.5-0.5,3-1.1,4.4-1.6C298.3,142.7,297.8,145.4,297.5,146.5z"/>
			</g>
		</g>
		<g>
			<g>
				<path id="path_cc15a1737d633c87674b20ad59c08677" class="st3" d="M102.4,146.4c-0.3-1.1-0.8-3.7-1.2-7.4
					c1.4,0.5,2.9,1.1,4.4,1.6c9.2,3.1,21.1,6.1,34.2,6.9c5.1,10.2,8,18.9,9.2,23C132.2,165,116.5,156.8,102.4,146.4z"/>
			</g>
		</g>
	</g>
	<g>
		<g>
			<g>
				<path id="path_0c98d6b27fdddc0f0cab077b9f443902" class="st2" d="M301.6,137.9c5-2,9.3-4,12.7-5.7c-4.3,4.1-8.7,8-13.4,11.7
					C301.1,142.3,301.4,140.3,301.6,137.9z"/>
			</g>
		</g>
		<g>
			<g>
				<path id="path_09b550af102408152913bb5755d310de" class="st2" d="M99.1,143.9c-4.6-3.6-9.1-7.5-13.3-11.6
					c3.4,1.7,7.6,3.7,12.6,5.7C98.5,140.3,98.8,142.3,99.1,143.9z"/>
			</g>
		</g>
	</g>
	<g>
		<g>
			<g>
				<path id="path_607938748b473a7da3bc2877d52bdc35" class="st4" d="M298.9,135.9c-10.2,3.9-23.2,7.7-37.4,8.8
					c6.9-13.1,17.4-28,32.6-38.6c2,4.9,3.4,10.1,4.2,15.6C299.1,127,299.2,131.9,298.9,135.9z"/>
			</g>
		</g>
		<g>
			<g>
				<path id="path_355c03d03c91515a88e333e74d94a7e2" class="st4" d="M101.6,121.8c0.8-5.6,2.2-10.8,4.3-15.7
					c15.2,10.6,25.6,25.5,32.6,38.6c-14.2-1.1-27.2-4.8-37.4-8.8C100.8,131.9,100.9,127.1,101.6,121.8z"/>
			</g>
		</g>
	</g>
	<g>
		<g>
			<g>
				<path id="path_e6502470cdc8976ace331e33020743e6" class="st5" d="M186.2,128.1c-3.3-0.8-9.1-2.6-16.2-5.4
					c0.8-4.3,2.2-8.6,4.2-13C178.8,115.5,182.8,121.6,186.2,128.1z"/>
			</g>
		</g>
		<g>
			<g>
				<path id="path_ba2716de4fa7f1c494edee38cea27ea8" class="st5" d="M225.9,109.7c2,4.4,3.4,8.7,4.2,13c-7,2.9-12.9,4.6-16.1,5.4
					C217.2,121.7,221.2,115.5,225.9,109.7z"/>
			</g>
		</g>
	</g>
	<g>
		<g>
			<g>
				<path id="path_0a1b757133e2a843d570e42b1aa7703d" class="st1" d="M187.8,131.4c6.8,14.2,10.5,29.9,10.8,46.1
					c-3.8-2.6-12.2-8.8-19-18c-3.9-5.2-6.6-10.6-8.3-16c0-0.1,0-0.2,0-0.2c0-0.1-0.1-0.2-0.1-0.3c-1.7-5.7-2.2-11.5-1.6-17.4
					C178.7,129.2,185.7,130.9,187.8,131.4z"/>
			</g>
		</g>
		<g>
			<g>
				<path id="path_e7f3ba404016e37a2e33fde299bec2a3" class="st1" d="M212.3,131.4c2.2-0.5,9.1-2.2,18.2-5.8
					c0.7,5.9,0.2,11.7-1.6,17.4c-0.1,0.1-0.1,0.2-0.1,0.3c0,0.1,0,0.1,0,0.2c-1.7,5.4-4.5,10.7-8.3,15.9c-6.7,9.2-15.1,15.4-19,18
					C201.7,161.6,205.4,145.9,212.3,131.4z"/>
			</g>
		</g>
	</g>
	<g>
		<g>
			<g>
				<path id="path_585e63f73ff6521a12e532b8002d1efa" class="st6" d="M156,119.3c3.8,2,7.5,3.7,10.9,5.2c-0.8,6.6-0.2,12.6,1.3,18.1
					c-9,2.1-17.9,2.7-26.4,2.3c-7.1-13.9-18.3-30.1-34.7-41.4c2.8-6,6.7-11.5,11.4-16.5C129.3,102.6,144.1,112.9,156,119.3z"/>
			</g>
		</g>
		<g>
			<g>
				<path id="path_d91901eaed11885c5e4c8c7b9525dbc4" class="st6" d="M258.3,144.9c-8.5,0.4-17.5-0.2-26.4-2.3
					c1.5-5.5,2.1-11.5,1.3-18.1c3.4-1.5,7.1-3.2,10.9-5.2c11.9-6.3,26.7-16.6,37.5-32.3c4.8,5,8.6,10.5,11.4,16.5
					C276.5,114.8,265.4,131,258.3,144.9z"/>
			</g>
		</g>
	</g>
	<g>
		<g>
			<g>
				<path id="path_e2d43d78eac40bd5fdddeb33aa55331c" class="st7" d="M112.8,70.9c5.1,1.2,10,2.7,14.8,4.6c-3.2,2.3-6.1,4.7-8.7,7.1
					C116.6,79,114.6,75.1,112.8,70.9z"/>
			</g>
		</g>
		<g>
			<g>
				<path id="path_e41e82d40afa521d95cf25eb922008b0" class="st7" d="M281,82.6c-2.6-2.4-5.4-4.8-8.6-7.1c4.8-1.9,9.7-3.4,14.7-4.6
					C285.4,75.1,283.3,79,281,82.6z"/>
			</g>
		</g>
	</g>
	<g>
		<g>
			<g>
				<path id="path_76e03fa14e06f9a3934c36f486d48c08" class="st2" d="M234,100.6c10.4-10.4,22.4-18.4,35.2-23.8
					c3.7,2.5,7.1,5.2,10.2,8.1c-10.5,15.4-25,25.6-36.7,31.8c-3.5,1.9-6.9,3.5-10.1,4.8c-0.9-4.5-2.4-9.3-4.8-14.2
					C229.8,105,231.9,102.8,234,100.6z"/>
			</g>
		</g>
		<g>
			<g>
				<path id="path_290c2537ec648d06674c2991b4eaa7e1" class="st2" d="M172.2,107.3c-2.4,5-4,9.7-4.8,14.3c-3.2-1.4-6.6-3-10-4.8
					c-11.7-6.2-26.3-16.4-36.8-31.8c3.1-2.9,6.5-5.7,10.3-8.2c13,5.5,24.9,13.5,35.2,23.8C168.1,102.8,170.2,105,172.2,107.3z"/>
			</g>
		</g>
	</g>
	<g>
		<g>
			<g>
				<path id="path_f71647518caae54a0974a382055c6633" class="st6" d="M170.3,235.4c0-0.2,0-0.4,0-0.5c0.1-4.4,0.5-8.7,1.4-12.9
					c2-0.3,3.9-0.8,5.6-1.2c7.2-1.9,12.5-4.6,15.7-6.5c-4.5,13.6-11.6,26.3-21.1,37.4C170.8,246.1,170.3,240.7,170.3,235.4z"/>
			</g>
		</g>
		<g>
			<g>
				<path id="path_ef2c91bb55b7976e5f2d00ad6177c87a" class="st6" d="M207.1,214.4c3.2,1.9,8.5,4.5,15.6,6.4
					c1.7,0.5,3.6,0.9,5.6,1.2c0.9,4.2,1.4,8.4,1.4,12.8c0,0.2,0,0.4,0,0.5c0,5.2-0.5,10.7-1.6,16.3
					C218.4,240.5,211.5,227.8,207.1,214.4z"/>
			</g>
		</g>
	</g>
	<g>
		<g>
			<g>
				<path id="path_ee709bccbecd7c0a25b76a74d72fe7d8" class="st8" d="M115.5,250.9c2.5-12.9,7.9-24.8,15.5-34.9
					c11,5.2,21.2,6.9,29.9,6.9c2.8,0,5.5-0.2,8-0.5c-0.7,3.7-1.2,7.7-1.3,12C147.3,253,121.8,251.6,115.5,250.9z"/>
			</g>
		</g>
		<g>
			<g>
				<path id="path_aa1668ef4ec68de7d5a5d264ba73addb" class="st8" d="M232.4,234.5c-0.1-4.3-0.6-8.3-1.3-12c2.5,0.3,5.1,0.5,8,0.5
					c8.7,0,18.9-1.7,29.9-6.9c7.6,10.1,13,22,15.6,34.9C278.3,251.6,252.7,253.1,232.4,234.5z"/>
			</g>
		</g>
	</g>
	<g>
		<g>
			<g>
				<path id="path_4ae6ebb2aba7a41b553d84083d925033" class="st9" d="M195.1,181.6c-3.9,2.8-9.8,7.9-15.2,15.5
					c-4,5.6-8,13-10.3,22.4c-10.1,1.5-22.7,0.7-36.8-5.7C147.6,195.3,170,183,195.1,181.6z"/>
			</g>
		</g>
		<g>
			<g>
				<path id="path_00a8e1cb228ea7fcb417106497a4e8fb" class="st9" d="M267.2,213.8c-14,6.4-26.7,7.2-36.8,5.7
					c-2.3-9.4-6.4-16.8-10.3-22.4c-5.4-7.6-11.4-12.7-15.2-15.5C230,183,252.3,195.3,267.2,213.8z"/>
			</g>
		</g>
	</g>
	<g>
		<g>
			<g>
				<path id="path_537b06a10a9f19bbc2f6d17e8deb5af2" class="st10" d="M87.1,67.9c7.6,0,15.1,0.8,22.4,2.2c2,5.2,4.5,10,7.4,14.4
					c-5.8,6-9.9,12.4-12.7,18.5c0,0,0,0,0,0.1c-0.1,0.2-0.2,0.3-0.2,0.5c-2.8,6.3-4.3,12.4-5.1,17.7c-0.7,5-0.8,9.5-0.7,13.4
					c-10.3-4.2-17.4-8.4-19.2-9.5c-13.3-14.5-24.1-31.5-31.5-50.1C60,70.4,73.4,67.9,87.1,67.9z"/>
			</g>
		</g>
		<g>
			<g>
				<path id="path_76b90fae2a4935569e0d07c1e13a07fc" class="st10" d="M321.1,125.2c-1.7,1-8.8,5.3-19.3,9.6c0.1-3.9,0-8.4-0.7-13.4
					c-0.8-5.3-2.3-11.3-5.1-17.7c0-0.2-0.1-0.3-0.2-0.5c0,0,0,0,0,0c-2.8-6.1-6.9-12.5-12.7-18.5c2.8-4.4,5.3-9.2,7.3-14.4
					c20.6-4.2,42.2-2.6,62.1,5C345.1,93.8,334.4,110.7,321.1,125.2z"/>
			</g>
		</g>
	</g>
	<g>
		<g>
			<g>
				<path id="path_cc0ef06d38f5a5df0f2f5c2c09e4f7f8" class="st0" d="M107.3,329.8c-0.8,1.4-1.8,2.7-3.2,3.8
					c-1.4,1.2-3.2,2.1-5.3,2.9c-2.3,0.8-4.5,1-6.6,0.6c-2.2-0.4-4.2-1.3-6.1-2.7c-1.9-1.4-3.6-3.3-5.2-5.7c-1.6-2.4-2.9-5.2-4.1-8.4
					c-1.1-3-1.7-6-2-8.8c-0.3-2.8-0.2-5.4,0.4-7.7c0.5-2.3,1.5-4.3,2.8-6c1.4-1.7,3.1-2.9,5.3-3.7c2-0.7,4-0.9,5.9-0.7
					c1.9,0.2,3.8,1,5.5,2.3l-1.7,3.6c-1.4-1-2.7-1.7-4.1-1.9c-1.4-0.3-2.8-0.2-4.1,0.3c-1.7,0.6-3,1.6-3.9,3c-0.9,1.4-1.5,3-1.7,4.9
					c-0.3,1.9-0.2,4,0.1,6.3c0.3,2.3,0.9,4.6,1.8,7c0.9,2.5,1.9,4.8,3.1,6.8c1.2,2,2.5,3.6,3.9,4.9c1.4,1.3,2.9,2.1,4.5,2.5
					c1.6,0.4,3.2,0.4,4.9-0.2c1.2-0.4,2.3-1,3.2-1.6c0.9-0.7,1.5-1.4,2-2.2l-4.9-13.8l-5.8,2l-1.2-3.5l9.8-3.4L107.3,329.8
					L107.3,329.8z"/>
			</g>
		</g>
		<g>
			<g>
				<path id="path_2c6bd332b874497a5685f94efbe0f111" class="st0" d="M121.2,329.4l-9.3-42.3l4.2-0.9l9.3,42.3L121.2,329.4z"/>
			</g>
		</g>
		<g>
			<g>
				<path id="path_b68cec28baf29914b6f29f092b2cc3f1" class="st0" d="M160,311.2c0.3,2.2,0.2,4.1-0.3,5.7c-0.5,1.6-1.3,2.9-2.2,4
					c-1,1-2.1,1.9-3.4,2.4c-1.3,0.6-2.5,0.9-3.7,1.1l-11,1.4l-5.5-42.9l9.7-1.2c1.2-0.2,2.5-0.2,3.8,0c1.3,0.2,2.6,0.6,3.8,1.2
					c1.2,0.7,2.2,1.6,3,2.9c0.9,1.3,1.4,2.9,1.7,5c0.2,1.5,0.2,2.7,0,3.9c-0.2,1.1-0.5,2.1-1,3c-0.5,0.9-1,1.6-1.7,2.2
					c-0.7,0.6-1.4,1.1-2.1,1.5l0,0.1c0.8,0.1,1.7,0.3,2.6,0.7c1,0.4,1.9,0.9,2.7,1.7c0.9,0.8,1.6,1.8,2.3,3
					C159.3,307.9,159.8,309.4,160,311.2z M152,291.8c-0.2-1.4-0.5-2.6-1.1-3.5c-0.5-0.9-1.2-1.6-2-2.1c-0.8-0.5-1.6-0.8-2.6-0.9
					c-0.9-0.1-1.8-0.1-2.8,0l-5.3,0.7l2,15.2l5.4-0.7c0.9-0.1,1.8-0.4,2.6-0.8c0.8-0.4,1.6-0.9,2.2-1.7c0.6-0.7,1.1-1.6,1.4-2.6
					C152.1,294.4,152.2,293.2,152,291.8z M155.8,311.5c-0.2-1.6-0.6-2.9-1.3-4c-0.6-1-1.4-1.9-2.2-2.5s-1.8-1-2.8-1.2
					c-1-0.2-1.9-0.2-2.8-0.1l-6,0.8l2.2,17.2l6-0.8c1.1-0.1,2.1-0.4,3-0.9c0.9-0.4,1.7-1.1,2.4-1.8c0.6-0.8,1.1-1.7,1.4-2.8
					C155.9,314.2,155.9,313,155.8,311.5z"/>
			</g>
		</g>
		<g>
			<g>
				<path id="path_4ed4c76f79f7dc9860be4829f48c0fc9" class="st0" d="M191.6,310.4c0.1,1.9-0.2,3.6-0.7,5.1
					c-0.5,1.5-1.3,2.8-2.2,3.9c-1,1.1-2.1,1.9-3.4,2.5c-1.3,0.6-2.7,0.9-4.2,1c-2.2,0.1-4.2-0.3-6.1-1.2c-1.9-0.9-3.4-2.1-4.6-3.6
					l2.5-3.1c1,1.3,2.2,2.3,3.7,3c1.5,0.7,2.9,1,4.4,0.9c2-0.1,3.6-0.8,4.8-2.3c1.3-1.4,1.9-3.4,1.8-6c0-1.2-0.3-2.3-0.7-3.2
					c-0.4-0.9-1-1.7-1.7-2.4c-0.7-0.7-1.5-1.3-2.4-1.9c-0.9-0.5-1.8-1-2.8-1.5c-1.2-0.5-2.3-1.1-3.4-1.8c-1.1-0.7-2-1.5-2.9-2.4
					c-0.8-0.9-1.5-2-2-3.3c-0.5-1.3-0.8-2.8-0.9-4.5c-0.1-2,0.2-3.7,0.7-5.3c0.6-1.5,1.3-2.8,2.3-3.8c1-1,2.2-1.8,3.4-2.4
					c1.3-0.5,2.6-0.8,4.1-0.9c2-0.1,3.7,0.2,5.3,0.8c1.6,0.6,2.9,1.6,4.1,3l-2.5,3.1c-0.9-1.2-1.8-2-3-2.4c-1.1-0.5-2.3-0.7-3.6-0.6
					c-0.9,0-1.7,0.2-2.5,0.5c-0.8,0.3-1.6,0.8-2.2,1.5c-0.6,0.7-1.1,1.5-1.5,2.6c-0.4,1-0.5,2.2-0.5,3.6c0,1.2,0.3,2.3,0.7,3.2
					c0.4,0.9,0.9,1.7,1.6,2.3c0.7,0.7,1.4,1.3,2.3,1.8c0.9,0.5,1.7,1,2.6,1.4c1.2,0.5,2.3,1.1,3.5,1.8c1.1,0.7,2.2,1.5,3.1,2.5
					c0.9,0.9,1.7,2.1,2.3,3.3C191.2,307.2,191.5,308.7,191.6,310.4z"/>
			</g>
		</g>
		<g>
			<g>
				<path id="path_18764e44fb0cc8f92c68c4b37127685b" class="st0" d="M232,301.3c-0.2,3.4-0.7,6.4-1.5,9.2c-0.8,2.8-1.9,5.1-3.2,7
					c-1.3,1.9-2.9,3.4-4.7,4.4c-1.8,1-3.8,1.4-6.1,1.3c-2.2-0.1-4.2-0.8-5.9-2c-1.7-1.2-3.1-2.8-4.3-4.9c-1.1-2.1-1.9-4.5-2.4-7.3
					c-0.5-2.8-0.7-5.9-0.5-9.3c0.2-3.3,0.7-6.4,1.5-9.1c0.8-2.8,1.8-5.1,3.2-7c1.3-1.9,2.9-3.4,4.7-4.4c1.8-1,3.9-1.4,6.2-1.3
					c2.2,0.1,4.2,0.8,5.9,2s3.1,2.8,4.2,4.9c1.1,2,1.9,4.5,2.4,7.3C232,294.9,232.2,298,232,301.3z M227.5,301.1
					c0.1-2.6,0.1-5.1-0.2-7.4c-0.3-2.3-0.8-4.3-1.5-6c-0.7-1.7-1.7-3.1-2.9-4.1c-1.2-1-2.5-1.6-4.1-1.7c-1.7-0.1-3.2,0.3-4.4,1.2
					c-1.3,0.9-2.4,2.2-3.3,3.8c-0.9,1.6-1.6,3.6-2.2,5.8c-0.5,2.3-0.9,4.7-1,7.3c-0.1,2.6-0.1,5.1,0.2,7.4c0.3,2.3,0.8,4.3,1.5,6.1
					c0.7,1.8,1.7,3.2,2.9,4.2c1.2,1,2.6,1.6,4.3,1.7c1.6,0.1,3.1-0.3,4.4-1.2c1.3-0.9,2.4-2.2,3.3-3.9c0.9-1.7,1.6-3.6,2.2-5.9
					C227,306.1,227.4,303.7,227.5,301.1z"/>
			</g>
		</g>
		<g>
			<g>
				<path id="path_3f21d331da4ede740f3f8c0ea20c7efa" class="st0" d="M262.1,327.7l-8.7-38.1l-0.2,0l-6.1,35.5l-3.9-0.7l7.4-42.6
					l5.2,0.9l8.6,38l0.2,0l6.1-35.5l3.9,0.7l-7.4,42.6L262.1,327.7z"/>
			</g>
		</g>
		<g>
			<g>
				<path id="path_1104188975c3acbea1a16e6e84544df8" class="st0" d="M288.6,305.1l4.2-14.5l3.4,1l-4.2,14.5L288.6,305.1z"/>
			</g>
		</g>
		<g>
			<g>
				<path id="path_89b590ee4133c4e11c6aed27b6fec523" class="st0" d="M314.1,331.8c-0.7,1.8-1.7,3.2-2.8,4.4c-1.1,1.1-2.3,2-3.7,2.6
					c-1.3,0.6-2.7,0.8-4.2,0.8c-1.5,0-2.9-0.3-4.3-0.9c-2-0.9-3.7-2.1-5-3.7c-1.3-1.6-2.2-3.3-2.7-5.2l3.6-1.7c0.3,1.6,1,3,2,4.3
					c1,1.2,2.2,2.1,3.6,2.7c1.8,0.8,3.6,0.8,5.3,0s3.1-2.3,4.1-4.7c0.5-1.1,0.7-2.2,0.7-3.2c0-1-0.2-2-0.5-3
					c-0.4-0.9-0.8-1.9-1.4-2.7c-0.6-0.9-1.2-1.7-1.9-2.6c-0.9-1-1.6-2-2.3-3.1c-0.7-1.1-1.2-2.2-1.6-3.4c-0.4-1.2-0.5-2.4-0.5-3.8
					c0.1-1.4,0.4-2.8,1.1-4.4c0.8-1.8,1.7-3.3,2.9-4.5c1.1-1.1,2.4-2,3.7-2.5c1.3-0.5,2.7-0.7,4.1-0.7c1.4,0.1,2.7,0.4,4.1,0.9
					c1.8,0.8,3.3,1.8,4.5,3c1.2,1.2,2,2.7,2.4,4.4l-3.6,1.7c-0.3-1.4-0.8-2.6-1.7-3.5c-0.8-0.9-1.8-1.6-3-2.1
					c-0.8-0.3-1.6-0.5-2.5-0.6c-0.9,0-1.8,0.1-2.6,0.4c-0.9,0.3-1.7,0.9-2.4,1.7c-0.8,0.8-1.4,1.8-2,3.1c-0.5,1.1-0.7,2.2-0.7,3.1
					c0,1,0.1,1.9,0.4,2.8c0.3,0.9,0.7,1.7,1.3,2.5c0.6,0.8,1.2,1.6,1.8,2.4c0.8,1,1.6,2,2.4,3.1c0.7,1.1,1.3,2.3,1.8,3.5
					c0.4,1.3,0.7,2.6,0.6,4C315.1,328.7,314.7,330.2,314.1,331.8z"/>
			</g>
		</g>
	</g>
	<g>
		<g>
			<g>
				<path id="path_e71a78034d1bdbf683bf64778e43cb3e" class="st0" d="M98.7,376.1c0-1.6,0.3-3.3,0.9-5.2c0.6-1.9,1.4-3.7,2.4-5.4
					c1-1.7,2.1-3.4,3.4-4.8c1.3-1.5,2.6-2.6,4-3.3c0.6-0.3,1.2-0.6,1.8-0.7c0.6-0.2,1.2-0.3,1.9-0.3c0.2,0,0.4,0,0.6,0h0.7
					c0.5,0,0.9,0.1,1.3,0.2c0.3,0.1,0.6,0.2,0.8,0.3c0.2,0.1,0.4,0.2,0.6,0.3c0.2,0.1,0.3,0.2,0.5,0.2c0.3,0,0.5-0.2,0.6-0.5
					c0.1-0.3,0.1-0.6,0.1-0.8c0-0.6-0.2-1.1-0.6-1.4c-0.4-0.4-0.9-0.7-1.5-0.9c-0.6-0.2-1.2-0.4-1.8-0.5c-0.6-0.1-1.2-0.2-1.6-0.2
					c-1.6,0-3.2,0.4-4.7,1.1c-1.5,0.7-2.9,1.6-4.2,2.8c-1.3,1.2-2.5,2.5-3.6,4c-1.1,1.5-2,3.1-2.8,4.8c-0.8,1.6-1.4,3.3-1.8,5
					c-0.4,1.7-0.6,3.2-0.6,4.6c0,0.7,0.1,1.5,0.2,2.3c0.1,0.8,0.4,1.5,0.7,2.2c0.3,0.7,0.8,1.2,1.4,1.7c0.6,0.4,1.3,0.7,2.2,0.7
					c1.3,0,2.7-0.4,4-1.3c1.3-0.9,2.6-2,3.7-3.2c1.2-1.3,2.2-2.6,3.1-4c0.9-1.4,1.7-2.7,2.3-3.7c0,0.8-0.1,1.9-0.2,3.4
					c-0.1,1.4-0.3,2.9-0.6,4.5c-0.3,1.6-0.6,3.2-1,4.9c-0.4,1.6-1,3.1-1.6,4.4c-0.6,1.3-1.4,2.4-2.3,3.2c-0.9,0.8-1.9,1.2-3.1,1.2
					c-0.7,0-1.3-0.1-1.8-0.4c-0.5-0.2-1-0.5-1.3-0.8c-0.4-0.3-0.7-0.6-1-0.8c-0.3-0.3-0.5-0.4-0.8-0.4c-0.2,0-0.4,0.1-0.5,0.3
					c-0.1,0.2-0.2,0.3-0.2,0.5c0,0.3,0.1,0.6,0.4,0.9c0.2,0.3,0.5,0.6,0.7,0.8c0.5,0.5,1.3,0.9,2.1,1.2c0.9,0.3,1.7,0.4,2.4,0.4
					c1.5,0,2.9-0.5,4.1-1.4c1.2-0.9,2.2-2.1,3.1-3.5c0.9-1.4,1.7-3.1,2.3-4.9c0.6-1.8,1.2-3.6,1.6-5.5c0.4-1.8,0.8-3.6,1-5.2
					c0.2-1.7,0.4-3.1,0.6-4.2c0.1-1.3,0.3-2.7,0.4-4c0.1-1.3,0.2-2.7,0.2-4c0-0.4-0.1-0.7-0.2-1c-0.1-0.3-0.4-0.5-0.9-0.5
					c-0.5,0-0.9,0.1-1.2,0.2c-0.3,0.1-0.5,0.3-0.6,0.6c-0.2,0.2-0.3,0.5-0.3,0.9c-0.1,0.3-0.2,0.7-0.3,1.1c-0.3,1.3-0.9,2.8-1.8,4.4
					c-0.8,1.6-1.8,3.3-2.9,4.9c-1.1,1.6-2.2,3.1-3.4,4.5c-1.2,1.4-2.4,2.4-3.5,3.2c-0.3,0.2-0.5,0.3-0.8,0.5s-0.6,0.2-0.9,0.2
					c-0.3,0-0.6-0.1-0.8-0.3c-0.2-0.2-0.4-0.5-0.5-0.8c-0.1-0.3-0.2-0.6-0.2-1C98.7,376.7,98.7,376.4,98.7,376.1z"/>
			</g>
		</g>
		<g>
			<g>
				<path id="path_4b1082280ed195e8a72206d8bc2730a0" class="st0" d="M125.9,383.8c0.9,0,1.8-0.3,2.7-0.8c0.9-0.6,1.7-1.2,2.5-2
					c0.8-0.8,1.5-1.7,2.2-2.6c0.6-0.9,1.2-1.7,1.6-2.4c0.1-0.2,0.3-0.5,0.4-0.7c0.1-0.3,0.2-0.5,0.2-0.8c0-0.2,0-0.4-0.1-0.5
					c-0.1-0.2-0.2-0.2-0.5-0.2c-0.2,0-0.4,0.1-0.5,0.2c-0.1,0.1-0.3,0.3-0.4,0.4c-0.2,0.3-0.4,0.6-0.6,0.9c-0.2,0.3-0.4,0.6-0.6,0.9
					c-0.3,0.4-0.7,0.9-1.1,1.5c-0.5,0.6-1,1.2-1.5,1.7c-0.6,0.6-1.1,1-1.7,1.4c-0.6,0.4-1.2,0.6-1.7,0.6c-0.6,0-1.1-0.3-1.4-0.8
					c-0.3-0.5-0.6-1.2-0.8-1.9c-0.2-0.7-0.3-1.5-0.4-2.3c-0.1-0.8-0.1-1.4-0.1-1.8c0-0.3,0-0.6,0-1c0-0.4,0.1-0.7,0.2-0.9
					c0.1-0.2,0.2-0.4,0.3-0.6c0.2-0.2,0.3-0.4,0.4-0.6c0.3-0.6,0.7-1.1,1.1-1.7c0.4-0.5,0.7-1.1,1-1.7c0.7-1.2,1.3-2.5,1.9-4
					c0.6-1.5,1.2-3,1.7-4.6c0.5-1.6,0.9-3.2,1.2-4.7c0.3-1.6,0.5-3,0.5-4.4c0-0.4,0-0.8-0.1-1.3c-0.1-0.5-0.2-0.9-0.4-1.3
					c-0.2-0.4-0.4-0.7-0.8-0.9c-0.3-0.2-0.8-0.4-1.3-0.4c-0.6,0-1.3,0.2-1.9,0.7c-0.6,0.5-1.2,1-1.7,1.7c-0.5,0.7-1,1.4-1.4,2.1
					c-0.4,0.7-0.7,1.3-0.9,1.8c-1.2,2.8-2,5.6-2.5,8.6c-0.5,2.9-0.7,5.9-0.7,8.9c0,0.5,0,1.3,0.1,2.1c0,0.9,0.1,1.8,0.2,2.9
					c0.1,1,0.3,2,0.5,3.1c0.2,1,0.5,1.9,0.9,2.8c0.4,0.8,0.9,1.5,1.4,2C124.4,383.6,125.1,383.8,125.9,383.8z M130,348.5
					c0.2,0,0.3,0.1,0.4,0.2c0.1,0.1,0.2,0.3,0.2,0.5c0,0.2,0.1,0.4,0.1,0.6v0.4c0,1.4-0.2,2.9-0.6,4.6s-1,3.3-1.6,5
					c-0.6,1.7-1.4,3.3-2.1,4.9c-0.8,1.6-1.5,2.9-2.2,4.1c0-0.2,0-0.4,0-0.6v-0.6c0-2.1,0.3-4.2,0.8-6.5c0.5-2.2,1.1-4.4,1.7-6.3
					c0.1-0.3,0.3-0.9,0.5-1.5c0.2-0.7,0.5-1.4,0.8-2c0.3-0.7,0.7-1.2,1.1-1.7C129.1,348.7,129.5,348.5,130,348.5z"/>
			</g>
		</g>
		<g>
			<g>
				<path id="path_37f6caebbf8c68bdbe7327bbb963609f" class="st0" d="M153.3,375.2c0-0.5-0.2-0.8-0.7-0.8c-0.3,0-0.6,0.1-0.7,0.4
					c-0.2,0.2-0.3,0.5-0.5,0.7c-0.3,0.4-0.6,0.9-1.2,1.6c-0.5,0.7-1.1,1.3-1.7,1.9c-0.6,0.6-1.2,1.2-1.8,1.6s-1.2,0.7-1.7,0.7
					c-0.3,0-0.6-0.2-0.8-0.5c-0.2-0.4-0.3-0.8-0.4-1.2c-0.1-0.5-0.1-0.9-0.2-1.4c0-0.5,0-0.8,0-1c0-0.7,0.1-1.5,0.2-2.4
					c0.1-0.8,0.3-1.6,0.5-2.4c0.1-0.3,0.3-0.7,0.5-1.2c0.2-0.5,0.3-0.9,0.3-1.2c0-0.3-0.1-0.5-0.3-0.6c-0.2-0.1-0.4-0.1-0.7-0.1
					c-0.4,0-0.7,0.1-0.9,0.4c-0.2,0.3-0.4,0.6-0.5,0.9c-0.1,0.3-0.4,0.7-0.6,1.3c-0.3,0.6-0.6,1.2-1,1.9c-0.4,0.7-0.8,1.4-1.2,2.1
					c-0.4,0.7-0.8,1.4-1.3,2c-0.4,0.6-0.8,1.1-1.2,1.5c-0.4,0.4-0.8,0.6-1.1,0.6c-0.3,0-0.4-0.1-0.5-0.4c-0.1-0.3-0.1-0.5-0.1-0.6
					c0-1.6,0.3-3.2,1-4.6c0.7-1.4,1.5-2.7,2.7-3.8c0.6-0.7,1.3-1.2,2-1.7c0.7-0.5,1.4-1,2.2-1.4c0.1-0.1,0.2-0.1,0.3-0.2
					c0.1-0.1,0.1-0.2,0.1-0.3c0-0.3-0.2-0.6-0.5-0.9c-0.3-0.3-0.6-0.4-0.9-0.4c-1.3,0-2.5,0.4-3.6,1.3c-1.2,0.9-2.2,1.9-3.1,3.2
					c-0.9,1.3-1.6,2.6-2.2,4.1c-0.5,1.4-0.8,2.7-0.8,3.8c0,0.4,0,0.9,0.1,1.4c0.1,0.5,0.2,1,0.4,1.5c0.2,0.5,0.5,0.8,0.8,1.2
					c0.3,0.3,0.8,0.5,1.3,0.5c0.6,0,1.2-0.2,1.7-0.6c0.6-0.4,1.2-0.9,1.7-1.5c0.5-0.6,1-1.2,1.5-1.9c0.4-0.6,0.8-1.2,1.1-1.6
					c0,0.5,0,1.2,0,1.9c0.1,0.8,0.2,1.5,0.4,2.2c0.2,0.7,0.6,1.3,1,1.8c0.4,0.5,1,0.8,1.7,0.8c0.7,0,1.5-0.2,2.3-0.6
					c0.8-0.4,1.5-1,2.1-1.6c0.7-0.6,1.3-1.3,1.9-2c0.6-0.7,1.1-1.3,1.5-1.9c0.1-0.2,0.3-0.5,0.6-0.9
					C153.2,375.7,153.3,375.4,153.3,375.2z"/>
			</g>
		</g>
		<g>
			<g>
				<path id="path_5ed274d78e0a9e1e57256bcdca71345e" class="st0" d="M157.9,368c0.3,0.8,0.7,1.7,1.2,2.5c0.5,0.8,0.9,1.7,1.3,2.5
					c0.4,0.8,0.8,1.7,1.1,2.6c0.3,0.9,0.4,1.8,0.4,2.7c0,0.6-0.1,1.1-0.2,1.7c-0.2,0.6-0.4,1.1-0.8,1.6c0.5,0,1.1-0.2,1.8-0.7
					c0.7-0.5,1.4-1,2.1-1.7c0.7-0.6,1.3-1.3,1.9-2c0.6-0.7,1-1.2,1.2-1.6c0.1-0.2,0.3-0.4,0.5-0.7c0.2-0.3,0.4-0.4,0.7-0.4
					c0.3,0,0.4,0.1,0.5,0.3c0.1,0.2,0.1,0.4,0.1,0.6c0,0.1-0.1,0.3-0.2,0.5c-0.1,0.2-0.2,0.3-0.2,0.5c-0.8,1.3-1.6,2.4-2.5,3.4
					c-0.9,1-1.9,1.8-2.9,2.5c-1,0.7-2.2,1.2-3.5,1.6c-1.3,0.4-2.7,0.5-4.2,0.5c-0.8,0-1.7-0.1-2.7-0.3c-1-0.2-1.8-0.6-2.4-1.2
					c-0.1-0.1-0.3-0.3-0.3-0.4c-0.1-0.1-0.1-0.3-0.1-0.5c0-0.4,0.2-0.6,0.7-0.6c0.2,0,0.3,0,0.4,0.1c0.1,0.1,0.2,0.1,0.4,0.2
					c0.5,0.3,1,0.5,1.5,0.6c0.5,0.1,1,0.2,1.6,0.2c1.1,0,2-0.4,2.6-1.1c0.6-0.7,0.9-1.6,0.9-2.7c0-0.7-0.1-1.4-0.3-2.1
					c-0.2-0.7-0.4-1.5-0.7-2.2c-0.3-0.7-0.6-1.5-1-2.2c-0.4-0.7-0.7-1.3-1.1-1.8c-0.2,0.6-0.5,1.2-0.8,1.9c-0.3,0.7-0.6,1.4-1,2.1
					c-0.4,0.7-0.8,1.3-1.2,2c-0.4,0.6-0.8,1.2-1.3,1.6c-0.1,0.1-0.3,0.3-0.5,0.5c-0.2,0.2-0.4,0.2-0.6,0.2c-0.4,0-0.6-0.2-0.6-0.6
					c0-0.2,0.1-0.4,0.2-0.6c0.1-0.2,0.2-0.3,0.4-0.5c1.9-2.4,3.4-5.2,4.4-8.2c-0.3-0.7-0.4-1.5-0.4-2.3c0-0.4,0.1-0.9,0.2-1.5
					c0.1-0.6,0.3-1.1,0.6-1.6c0.3-0.5,0.6-1,1-1.3c0.4-0.4,0.9-0.6,1.4-0.6c0.3,0,0.5,0.1,0.7,0.2c0.2,0.2,0.3,0.4,0.4,0.6
					c0.1,0.2,0.2,0.5,0.2,0.8c0,0.3,0.1,0.5,0.1,0.7c0,0.7-0.1,1.4-0.3,2.2C158.3,366.7,158.1,367.4,157.9,368z"/>
			</g>
		</g>
		<g>
			<g>
				<path id="path_9d2d97f6b247948492e5da6a7c89ff33" class="st0" d="M174.6,368c0.3,0.8,0.7,1.7,1.2,2.5c0.5,0.8,0.9,1.7,1.3,2.5
					c0.4,0.8,0.8,1.7,1.1,2.6c0.3,0.9,0.4,1.8,0.4,2.7c0,0.6-0.1,1.1-0.2,1.7c-0.2,0.6-0.4,1.1-0.8,1.6c0.5,0,1.1-0.2,1.8-0.7
					c0.7-0.5,1.4-1,2.1-1.7c0.7-0.6,1.3-1.3,1.9-2c0.6-0.7,1-1.2,1.2-1.6c0.1-0.2,0.3-0.4,0.5-0.7c0.2-0.3,0.4-0.4,0.7-0.4
					c0.3,0,0.4,0.1,0.5,0.3c0.1,0.2,0.1,0.4,0.1,0.6c0,0.1-0.1,0.3-0.2,0.5c-0.1,0.2-0.2,0.3-0.2,0.5c-0.8,1.3-1.6,2.4-2.5,3.4
					c-0.9,1-1.9,1.8-2.9,2.5c-1,0.7-2.2,1.2-3.5,1.6c-1.3,0.4-2.7,0.5-4.2,0.5c-0.8,0-1.7-0.1-2.7-0.3c-1-0.2-1.8-0.6-2.4-1.2
					c-0.1-0.1-0.3-0.3-0.3-0.4c-0.1-0.1-0.1-0.3-0.1-0.5c0-0.4,0.2-0.6,0.7-0.6c0.2,0,0.3,0,0.4,0.1c0.1,0.1,0.2,0.1,0.4,0.2
					c0.5,0.3,1,0.5,1.5,0.6c0.5,0.1,1,0.2,1.6,0.2c1.1,0,2-0.4,2.6-1.1c0.6-0.7,0.9-1.6,0.9-2.7c0-0.7-0.1-1.4-0.3-2.1
					c-0.2-0.7-0.4-1.5-0.7-2.2c-0.3-0.7-0.6-1.5-1-2.2c-0.4-0.7-0.7-1.3-1.1-1.8c-0.2,0.6-0.5,1.2-0.8,1.9c-0.3,0.7-0.6,1.4-1,2.1
					c-0.4,0.7-0.8,1.3-1.2,2c-0.4,0.6-0.8,1.2-1.3,1.6c-0.1,0.1-0.3,0.3-0.5,0.5c-0.2,0.2-0.4,0.2-0.6,0.2c-0.4,0-0.6-0.2-0.6-0.6
					c0-0.2,0.1-0.4,0.2-0.6c0.1-0.2,0.2-0.3,0.4-0.5c1.9-2.4,3.4-5.2,4.4-8.2c-0.3-0.7-0.4-1.5-0.4-2.3c0-0.4,0.1-0.9,0.2-1.5
					c0.1-0.6,0.3-1.1,0.6-1.6c0.3-0.5,0.6-1,1-1.3c0.4-0.4,0.9-0.6,1.4-0.6c0.3,0,0.5,0.1,0.7,0.2c0.2,0.2,0.3,0.4,0.4,0.6
					c0.1,0.2,0.2,0.5,0.2,0.8c0,0.3,0.1,0.5,0.1,0.7c0,0.7-0.1,1.4-0.3,2.2C175.1,366.7,174.8,367.4,174.6,368z"/>
			</g>
		</g>
		<g>
			<g>
				<path id="path_dacf5374df6b14ab125536209583b263" class="st0" d="M214.5,377.1c0.2-0.2,0.4-0.5,0.6-0.8c0.2-0.3,0.3-0.6,0.3-0.8
					c0-0.2-0.1-0.5-0.3-0.7c-0.2-0.2-0.4-0.3-0.7-0.3c-0.2,0-0.4,0.1-0.6,0.2c-0.2,0.1-0.4,0.3-0.6,0.5c-0.2,0.2-0.4,0.4-0.5,0.6
					c-0.2,0.2-0.3,0.4-0.4,0.5c-0.8-1.5-1.6-3.1-2.3-4.6s-1.6-3.1-2.3-4.6c0.7-0.5,1.5-1,2.3-1.5c0.8-0.6,1.5-1.2,2.1-1.9
					c0.6-0.7,1.2-1.5,1.6-2.3c0.4-0.8,0.6-1.8,0.6-2.8c0-0.8-0.2-1.5-0.5-2.1c-0.3-0.6-0.7-1.1-1.3-1.5c-0.5-0.4-1.1-0.7-1.8-0.9
					c-0.7-0.2-1.3-0.3-2-0.3c-1,0-1.9,0.2-2.7,0.6c-0.8,0.4-1.5,0.9-2.1,1.6c-0.6,0.7-1,1.4-1.3,2.3c-0.3,0.8-0.5,1.7-0.5,2.7
					c0,0.9,0.1,1.8,0.4,2.7c0.3,0.9,0.6,1.7,1,2.5c-0.7,0.5-1.5,1.2-2.3,1.9c-0.8,0.7-1.5,1.5-2.1,2.4s-1.1,1.7-1.5,2.7
					c-0.4,1-0.6,1.9-0.6,2.9c0,1,0.2,1.8,0.6,2.6c0.4,0.8,0.9,1.4,1.5,2c0.6,0.6,1.3,1,2.2,1.3c0.8,0.3,1.7,0.5,2.6,0.5
					c1.2,0,2.5-0.2,3.8-0.7c1.3-0.5,2.4-1.1,3.3-2l1.3,2.6c0.1,0.3,0.3,0.4,0.5,0.5c0.2,0.1,0.4,0.1,0.7,0.1c0.3,0,0.6-0.1,0.9-0.2
					c0.3-0.1,0.4-0.4,0.4-0.7c0-0.1-0.1-0.3-0.2-0.6l-0.5-1.1c-0.2-0.4-0.4-0.8-0.6-1.1c-0.2-0.3-0.3-0.6-0.4-0.7
					c0.2-0.2,0.5-0.4,0.7-0.5C214.1,377.5,214.3,377.3,214.5,377.1z M209.2,355.2c1.3,0,1.9,0.7,1.9,2c0,0.8-0.2,1.6-0.5,2.3
					c-0.3,0.7-0.7,1.4-1.2,2c-0.5,0.6-1.1,1.2-1.7,1.7c-0.6,0.5-1.3,1-1.9,1.4c-0.3-0.7-0.5-1.4-0.7-2.1c-0.2-0.7-0.3-1.4-0.3-2.2
					c0-0.6,0.1-1.3,0.3-1.9c0.2-0.6,0.5-1.2,0.9-1.7c0.4-0.5,0.8-0.9,1.4-1.2C207.9,355.4,208.5,355.2,209.2,355.2z M205.4,368
					c0.8,1.7,1.6,3.3,2.4,4.8c0.7,1.5,1.5,3.1,2.4,4.8c-0.9,0.7-1.9,1.3-3,1.9c-1,0.6-2.1,0.8-3.4,0.8c-1.2,0-2.2-0.3-2.8-0.9
					c-0.7-0.6-1-1.5-1-2.8c0-0.9,0.2-1.7,0.5-2.5c0.3-0.8,0.7-1.6,1.2-2.3c0.5-0.7,1.1-1.4,1.7-2.1
					C204.1,369.1,204.8,368.5,205.4,368z"/>
			</g>
		</g>
		<g>
			<g>
				<path id="path_88507c7c89efa340373f9b36bd79d1d5" class="st0" d="M244,369c-0.8,0.1-1.7,0.2-2.5,0.3c-0.8,0.1-1.7,0.2-2.5,0.3
					c0.5-1,0.9-2.1,1.4-3.1c0.4-1,0.8-2.1,1.2-3.2c0.1-0.1,0.2-0.4,0.3-0.8c0.1-0.4,0.3-0.8,0.4-1.2c0.2-0.4,0.3-0.8,0.5-1.1
					c0.1-0.3,0.2-0.5,0.3-0.5s0.1,0,0.1,0.1c0,0.1,0,0.1,0,0.2c0.1,0.5,0.2,1,0.2,1.6c0,0.6,0,1.1,0,1.6
					C243.6,365.3,243.8,367.2,244,369z M251.8,382.8c0.8,0,1.6-0.2,2.4-0.7s1.6-1.1,2.3-1.7c0.7-0.7,1.4-1.4,2-2.2
					c0.6-0.8,1.1-1.5,1.4-2.1c0.1-0.2,0.2-0.3,0.2-0.5c0.1-0.2,0.1-0.4,0.1-0.6c0-0.2-0.1-0.3-0.3-0.4c-0.2-0.1-0.3-0.2-0.5-0.2
					c-0.2,0-0.4,0.1-0.6,0.3c-0.1,0.2-0.3,0.3-0.4,0.5c-0.4,0.5-0.8,1.1-1.3,1.7c-0.5,0.6-1,1.2-1.5,1.7c-0.5,0.5-1.1,0.9-1.8,1.3
					c-0.6,0.3-1.3,0.5-2,0.5c-0.4,0-0.8-0.2-1.2-0.6c-0.4-0.4-0.7-0.9-1-1.6c-0.3-0.6-0.5-1.4-0.8-2.1c-0.2-0.8-0.4-1.5-0.6-2.3
					c-0.2-0.7-0.3-1.4-0.4-2.1c-0.1-0.6-0.1-1.1-0.2-1.4c0.6-0.1,1.2-0.2,1.9-0.2c0.7-0.1,1.3-0.2,1.8-0.4c0.3-0.1,0.5-0.2,0.7-0.4
					c0.2-0.2,0.3-0.4,0.3-0.7c0-0.2-0.1-0.4-0.3-0.5c-0.2-0.1-0.4-0.1-0.6-0.1c-0.7,0-1.4,0.1-2.1,0.2c-0.7,0.1-1.4,0.2-2.1,0.3
					c-0.1-1.3-0.2-2.5-0.3-3.7c0-1.2,0-2.5,0-3.7c0-1.6,0.1-3.2,0.2-4.7c0.1-1.6,0.2-3.2,0.2-4.7c0-0.3-0.1-0.7-0.2-1.1
					c-0.1-0.4-0.4-0.6-0.8-0.6c-0.3,0-0.6,0.1-1,0.2c-0.4,0.1-0.9,0.3-1.3,0.5c-0.4,0.2-0.8,0.4-1.1,0.7c-0.3,0.3-0.5,0.6-0.5,0.9
					c0,0.9-0.1,1.7-0.3,2.4c-0.2,0.7-0.4,1.5-0.7,2.3c-0.4,0.9-0.9,2.2-1.5,4c-0.7,1.7-1.4,3.7-2.3,5.7c-0.9,2.1-1.8,4.2-2.8,6.3
					c-1,2.2-2.1,4.1-3.2,5.9c-1.1,1.8-2.2,3.2-3.3,4.3s-2.3,1.7-3.4,1.7c-0.4,0-0.8-0.1-1.1-0.2c-0.4-0.1-0.7-0.2-1.1-0.2
					c-0.2,0-0.4,0.1-0.6,0.2c-0.2,0.1-0.3,0.3-0.3,0.6c0,0.3,0.1,0.5,0.4,0.7c0.2,0.2,0.5,0.3,0.9,0.4c0.3,0.1,0.7,0.1,1,0.2
					c0.3,0,0.6,0,0.8,0c1.7,0,3.2-0.5,4.6-1.5c1.3-1,2.5-2.3,3.5-3.8c1-1.5,1.9-3.1,2.6-4.8c0.8-1.7,1.4-3.2,2-4.4
					c1-0.1,2.1-0.3,3.1-0.5c1-0.2,2-0.4,3.1-0.5c0.1,1,0.4,2.2,0.7,3.6c0.3,1.4,0.7,2.7,1.3,4c0.6,1.3,1.3,2.3,2.2,3.2
					C249.4,382.4,250.5,382.8,251.8,382.8z"/>
			</g>
		</g>
		<g>
			<g>
				<path id="path_18eb48b6b494813afc2b7605631c2e37" class="st0" d="M265.1,373c0,0.8,0,1.6-0.1,2.4c-0.1,0.8-0.1,1.6-0.1,2.4
					c0,0.5,0,1.1,0.1,1.8c0,0.7,0.2,1.3,0.4,2c0.2,0.6,0.5,1.1,0.9,1.6c0.4,0.4,1,0.7,1.7,0.7c0.7,0,1.5-0.3,2.3-0.8
					c0.8-0.6,1.7-1.2,2.4-2c0.8-0.8,1.5-1.6,2.2-2.4c0.7-0.8,1.2-1.5,1.5-2.1c0.1-0.1,0.2-0.3,0.2-0.4c0.1-0.1,0.1-0.3,0.1-0.5
					c0-0.2,0-0.4-0.1-0.6c-0.1-0.2-0.2-0.3-0.5-0.3s-0.5,0.1-0.7,0.4c-0.2,0.2-0.4,0.5-0.5,0.7c-0.3,0.4-0.7,0.9-1.2,1.6
					c-0.5,0.7-1.1,1.3-1.8,2c-0.6,0.7-1.3,1.2-1.9,1.7c-0.6,0.5-1.2,0.7-1.7,0.7c-0.4,0-0.6-0.2-0.7-0.6c-0.1-0.4-0.1-0.7-0.1-1
					c0-1,0.1-2,0.3-3.1c0.2-1,0.4-2,0.6-3c0.1-0.6,0.2-1.2,0.2-1.7c0-0.9-0.2-1.7-0.6-2.3c-0.4-0.6-0.9-1-1.4-1.4
					c-0.6-0.4-1.1-0.7-1.7-1.1c-0.6-0.3-1-0.8-1.4-1.3c0.1-0.7,0.1-1.4,0.1-2.1c0-0.2,0-0.5,0-0.9c0-0.4-0.1-0.7-0.2-1.1
					c-0.1-0.4-0.3-0.7-0.4-0.9c-0.2-0.3-0.4-0.4-0.7-0.4c-0.4,0-0.8,0.2-1.1,0.6c-0.3,0.4-0.6,0.8-0.8,1.3c-0.2,0.5-0.4,1-0.5,1.6
					c-0.1,0.5-0.2,1-0.2,1.3c0,0.7,0.1,1.3,0.3,1.9c0.2,0.6,0.5,1.2,0.9,1.7c-0.2,1.5-0.6,2.8-1.4,4.1c-0.7,1.3-1.5,2.5-2.3,3.7
					c-0.1,0.1-0.2,0.3-0.3,0.5c-0.1,0.2-0.1,0.3-0.1,0.5c0,0.4,0.2,0.6,0.6,0.6c0.2,0,0.4-0.1,0.6-0.2c0.2-0.1,0.4-0.3,0.5-0.4
					c0.5-0.5,0.9-1,1.3-1.7c0.4-0.6,0.8-1.3,1.1-2c0.3-0.7,0.7-1.4,0.9-2.1c0.3-0.7,0.5-1.3,0.8-2c0.6,0.2,1.2,0.5,1.7,0.9
					S265.1,372.3,265.1,373z"/>
			</g>
		</g>
		<g>
			<g>
				<path id="path_648b5a554424ce2a3b3bc26f6dbb0bb2" class="st0" d="M284.6,361.8c0.2,0,0.4-0.1,0.8-0.2c0.3-0.1,0.7-0.2,1.1-0.3
					c0.4-0.1,0.7-0.2,1-0.3c0.3-0.1,0.5-0.2,0.6-0.2c0.2-0.1,0.3-0.2,0.4-0.3c0.1-0.1,0.2-0.3,0.2-0.5c0-0.4-0.2-0.6-0.6-0.6
					c-0.5,0-1,0-1.5,0.1c-0.5,0.1-1,0.2-1.5,0.2c0.3-1.1,0.6-2.2,0.7-3.4c0.2-1.1,0.2-2.3,0.2-3.4c0-0.3,0-0.7,0-1.1
					c0-0.4-0.1-0.9-0.2-1.3c-0.1-0.4-0.3-0.7-0.6-1c-0.3-0.3-0.6-0.4-1.1-0.4c-1,0-1.9,0.5-2.7,1.4c-0.8,0.9-1.5,2-2.2,3.3
					c-0.6,1.3-1.2,2.6-1.6,3.9c-0.4,1.3-0.8,2.3-1,3.1c-0.5,0-0.9,0.1-1.4,0.3c-0.5,0.2-0.8,0.5-0.8,1.1c0,0.7,0.3,1,1,1
					c0.3,0,0.6,0,0.9-0.1c-0.3,1.4-0.5,2.8-0.6,4.2c-0.1,1.4-0.2,2.8-0.2,4.2c0,0.5,0,1.2,0.1,2c0.1,0.8,0.2,1.7,0.3,2.6
					c0.1,0.9,0.3,1.8,0.6,2.8c0.3,0.9,0.6,1.7,1,2.5c0.4,0.7,0.9,1.3,1.4,1.8c0.6,0.5,1.2,0.7,2,0.7c0.9,0,1.7-0.3,2.6-0.8
					c0.9-0.6,1.7-1.2,2.5-2c0.8-0.8,1.5-1.7,2.2-2.6c0.7-0.9,1.2-1.7,1.6-2.4c0.2-0.3,0.3-0.6,0.5-0.9c0.1-0.3,0.2-0.6,0.2-0.9
					c0-0.2-0.1-0.3-0.2-0.5c-0.1-0.1-0.3-0.2-0.4-0.2c-0.2,0-0.4,0.1-0.6,0.3c-0.2,0.2-0.4,0.4-0.5,0.6c-0.3,0.5-0.7,1.2-1.3,1.9
					c-0.5,0.8-1.1,1.5-1.8,2.2c-0.6,0.7-1.3,1.3-2,1.8c-0.7,0.5-1.4,0.8-2,0.8c-0.6,0-1-0.3-1.4-1c-0.4-0.7-0.6-1.5-0.8-2.4
					c-0.2-0.9-0.3-1.8-0.4-2.7c-0.1-0.9-0.1-1.6-0.1-2v-0.5c0-0.2,0-0.4,0.1-0.5c0.1-0.1,0.2-0.3,0.3-0.5c0.1-0.2,0.3-0.3,0.4-0.5
					c0.2-0.3,0.4-0.6,0.6-0.8c0.2-0.3,0.4-0.6,0.6-0.9c0.7-1.2,1.4-2.4,2.1-3.8C283.7,364.4,284.2,363.1,284.6,361.8z M284,351.3
					c0.1,0,0.2,0.1,0.3,0.2c0.1,0.1,0.1,0.2,0.1,0.4c0,0.1,0,0.3,0,0.4v0.3c0,1.1-0.1,2.4-0.3,3.7c-0.2,1.3-0.5,2.6-0.9,3.7
					c-0.6,0.1-1.2,0.2-1.8,0.3c-0.6,0-1.2,0.1-1.8,0.2c0.1-0.4,0.2-1.1,0.5-2.1c0.3-1,0.6-2,1-3.1c0.4-1,0.8-2,1.3-2.8
					C283.1,351.7,283.5,351.3,284,351.3z M279.5,362.7c0.5-0.1,1-0.2,1.5-0.3c0.5,0,1-0.1,1.5-0.2c-0.1,0.5-0.4,1.1-0.6,1.8
					c-0.3,0.7-0.6,1.4-1,2.1c-0.4,0.7-0.7,1.4-1.1,2c-0.4,0.6-0.7,1.1-1.1,1.5c0.1-1.1,0.2-2.3,0.2-3.5
					C279.1,365,279.2,363.9,279.5,362.7z"/>
			</g>
		</g>
	</g>
</g>
</svg>
